Coordinates
version=1
nRows=24
nColumns=38
inDegrees=no

Units are S.I. units (second, meters, Newtons, ...)
If the header above contains a line with 'inDegrees', this indicates whether rotational values are in degrees (yes) or radians (no).

endheader
time	pelvis_tilt	pelvis_list	pelvis_rotation	pelvis_tx	pelvis_ty	pelvis_tz	hip_flexion_r	hip_adduction_r	hip_rotation_r	knee_angle_r	ankle_angle_r	subtalar_angle_r	mtp_angle_r	hip_flexion_l	hip_adduction_l	hip_rotation_l	knee_angle_l	ankle_angle_l	subtalar_angle_l	mtp_angle_l	lumbar_extension	lumbar_bending	lumbar_rotation	arm_flex_r	arm_add_r	arm_rot_r	elbow_flex_r	pro_sup_r	wrist_flex_r	wrist_dev_r	arm_flex_l	arm_add_l	arm_rot_l	elbow_flex_l	pro_sup_l	wrist_flex_l	wrist_dev_l
20	0.477308	1.4976	0.830289	0.758006	-0.723487	0.972797	-0.0278564	0.0239995	-0.229719	0.1747	0.184405	0	0	0.162749	-0.100358	-0.270545	0.294431	0.100782	0	0	-0.111891	0.156006	0.100018	0.0875291	-0.324134	0.281802	2.00742	1.5708	0	0	-0.00654625	-0.264213	-0.269739	1.89896	0.727815	0	0
20.01	0.47173	1.49739	0.834617	0.757931	-0.722385	0.972776	-0.0292413	0.0233433	-0.228118	0.173363	0.18444	0	0	0.16304	-0.099865	-0.265671	0.294545	0.101195	0	0	-0.112238	0.156357	0.102138	0.0836542	-0.324175	0.279201	2.01122	1.5708	0	0	-0.0082557	-0.265108	-0.267935	1.90053	0.727638	0	0
20.02	0.466288	1.4973	0.837772	0.757991	-0.721198	0.972752	-0.0306845	0.0225373	-0.226016	0.172308	0.184831	0	0	0.162816	-0.0994853	-0.26212	0.293836	0.10174	0	0	-0.11261	0.156617	0.104199	0.0807592	-0.32414	0.278203	2.01429	1.5708	0	0	-0.0107703	-0.265615	-0.267663	1.90241	0.727609	0	0
20.03	0.457758	1.49699	0.842968	0.758164	-0.71997	0.972704	-0.0318963	0.0217684	-0.222528	0.170996	0.185137	0	0	0.16278	-0.0993242	-0.260297	0.292785	0.101956	0	0	-0.112654	0.156777	0.106967	0.0780579	-0.323472	0.27717	2.01702	1.5708	0	0	-0.0134384	-0.266045	-0.267528	1.90393	0.72725	0	0
20.04	0.447051	1.49712	0.849568	0.758422	-0.718677	0.972691	-0.0334501	0.020569	-0.21862	0.169481	0.185404	0	0	0.161931	-0.0988064	-0.259204	0.290802	0.10216	0	0	-0.112936	0.156282	0.11065	0.0747416	-0.323068	0.276098	2.01997	1.5708	0	0	-0.016007	-0.266648	-0.267036	1.90492	0.726285	0	0
20.05	0.43253	1.4976	0.85941	0.758733	-0.717339	0.972692	-0.0349412	0.0188581	-0.21482	0.168288	0.185609	0	0	0.160658	-0.097959	-0.25927	0.288105	0.102427	0	0	-0.113323	0.155208	0.114958	0.0711374	-0.322496	0.275329	2.02295	1.5708	0	0	-0.018779	-0.267293	-0.267	1.90548	0.725612	0	0
20.06	0.420957	1.49738	0.868558	0.758818	-0.716239	0.972649	-0.0355147	0.0178362	-0.21331	0.167795	0.185508	0	0	0.161191	-0.0974071	-0.25625	0.286125	0.102501	0	0	-0.113676	0.155016	0.117207	0.0687382	-0.321708	0.275205	2.02589	1.5708	0	0	-0.0203919	-0.267678	-0.267282	1.9056	0.725425	0	0
20.07	0.412644	1.49638	0.875651	0.758805	-0.715232	0.972553	-0.0356163	0.0176224	-0.212255	0.167113	0.185369	0	0	0.163065	-0.0974145	-0.251894	0.284556	0.102552	0	0	-0.113589	0.155715	0.118616	0.0666828	-0.321076	0.275343	2.029	1.5708	0	0	-0.0208631	-0.267471	-0.267818	1.90518	0.725631	0	0
20.08	0.401625	1.49543	0.884276	0.758922	-0.714109	0.97246	-0.0356028	0.0171413	-0.209856	0.166806	0.185673	0	0	0.164385	-0.0974834	-0.250202	0.28203	0.102149	0	0	-0.113116	0.156089	0.121397	0.0638895	-0.32114	0.275578	2.03215	1.5708	0	0	-0.0217017	-0.267068	-0.268579	1.90492	0.725893	0	0
20.09	0.389288	1.49485	0.894049	0.759033	-0.712951	0.972392	-0.0358472	0.0162044	-0.207103	0.166475	0.185919	0	0	0.165464	-0.0975369	-0.251034	0.279341	0.101856	0	0	-0.112893	0.156132	0.124432	0.0613161	-0.321402	0.276048	2.03507	1.5708	0	0	-0.0226514	-0.266419	-0.269911	1.9048	0.726098	0	0
20.1	0.379249	1.49587	0.903777	0.758962	-0.712006	0.972541	-0.0375293	0.0143804	-0.206518	0.165863	0.185707	0	0	0.167815	-0.0969183	-0.250423	0.280283	0.101669	0	0	-0.114746	0.155168	0.125418	0.0601457	-0.321281	0.276851	2.03737	1.5708	0	0	-0.0222103	-0.26584	-0.271575	1.90419	0.726229	0	0
20.11	0.258851	1.50287	1.02711	0.758867	-0.712174	0.973827	-0.0375574	0.00250218	-0.208623	0.167411	0.184207	0	0	0.167527	-0.0860707	-0.260596	0.271453	0.0906956	0	0	-0.120091	0.141808	0.122621	0.0613026	-0.316835	0.278074	2.03375	1.5708	0	0	-0.0169766	-0.267691	-0.273111	1.89976	0.726483	0	0
20.12	0.377149	1.52164	0.958645	0.750336	-0.711077	0.975545	-0.0639503	-0.00924262	-0.268961	0.164439	0.18513	0	0	0.16296	-0.0655387	-0.203918	0.276578	0.0834596	0	0	-0.143206	0.150548	0.0750592	0.0725739	-0.329276	0.279415	2.04406	1.5708	0	0	-0.00568531	-0.25688	-0.273597	1.89696	0.727239	0	0
20.13	0.0688342	1.51768	1.21148	0.758828	-0.710151	0.975435	-0.0469686	-0.0184284	-0.208267	0.170194	0.18672	0	0	0.173125	-0.079325	-0.293088	0.297098	0.0970772	0	0	-0.133166	0.123496	0.128696	0.0597905	-0.3157	0.281872	2.03393	1.5708	0	0	-0.011967	-0.266318	-0.276929	1.89404	0.727202	0	0
20.14	0.130781	1.54204	1.20514	0.749239	-0.708801	0.977742	-0.0806139	-0.032229	-0.275145	0.165351	0.187181	0	0	0.164707	-0.0545194	-0.231384	0.301459	0.0884964	0	0	-0.161548	0.132944	0.0757798	0.0720283	-0.329507	0.282802	2.0443	1.5708	0	0	0.00104525	-0.253745	-0.276844	1.88993	0.728005	0	0
20.15	1.9882	1.54391	-0.713507	0.758179	-0.712111	0.982101	-0.121658	-0.0154347	-0.189838	0.156876	0.1685	0	0	0.108471	-0.0868972	-0.321271	0.295332	0.0927027	0	0	-0.228005	0.123931	0.140196	0.0889453	-0.322428	0.288375	2.04184	1.5708	0	0	0.0178752	-0.262182	-0.28042	1.89395	0.728897	0	0
20.16	1.94433	1.54466	-0.667128	0.757966	-0.711204	0.981834	-0.121162	-0.0155457	-0.19194	0.157474	0.169417	0	0	0.113774	-0.0882476	-0.324557	0.296132	0.0948925	0	0	-0.227429	0.124706	0.139613	0.0881256	-0.322783	0.289628	2.0438	1.5708	0	0	0.0203106	-0.261442	-0.281327	1.89168	0.729079	0	0
20.17	0.344853	1.49875	1.12703	0.728313	-0.707075	0.973832	-0.0565112	-0.0154206	-0.418601	0.168073	0.189922	0	0	0.253469	-0.0353147	-0.0577519	0.333702	0.0871316	0	0	-0.112081	0.19935	-0.051158	0.0823191	-0.364303	0.287582	2.06885	1.5708	0	0	0.012279	-0.220596	-0.281706	1.87588	0.7309	0	0
20.18	0.317965	1.49439	1.18053	0.725806	-0.706972	0.972998	-0.0464277	-0.0109913	-0.434333	0.181446	0.188045	0	0	0.26674	-0.0278363	-0.0338395	0.333171	0.0861795	0	0	-0.104104	0.201663	-0.073146	0.0821077	-0.367312	0.291942	2.07261	1.5708	0	0	0.0162966	-0.217843	-0.283441	1.87341	0.732398	0	0
20.19	0.287194	1.49438	1.20726	0.726865	-0.70666	0.972876	-0.0436036	-0.0134779	-0.431875	0.186024	0.19091	0	0	0.26834	-0.0271407	-0.0393692	0.327422	0.0854727	0	0	-0.106111	0.19749	-0.0682964	0.0832552	-0.365109	0.295477	2.07183	1.5708	0	0	0.0198721	-0.219902	-0.285885	1.87146	0.734025	0	0
20.2	2.00086	1.54805	-0.711555	0.757162	-0.708154	0.981491	-0.123954	-0.01986	-0.201381	0.159141	0.173078	0	0	0.122859	-0.0813618	-0.317514	0.277783	0.0922364	0	0	-0.231153	0.122412	0.133668	0.0887465	-0.323858	0.297506	2.04881	1.5708	0	0	0.0348569	-0.260363	-0.286016	1.88007	0.733627	0	0
20.21	2.08741	1.5495	-0.794779	0.756932	-0.70752	0.98157	-0.125031	-0.0225242	-0.20387	0.160099	0.174027	0	0	0.121776	-0.0757076	-0.310185	0.26604	0.0858715	0	0	-0.233069	0.120021	0.131349	0.0901267	-0.323332	0.299839	2.04835	1.5708	0	0	0.039596	-0.260572	-0.287323	1.87685	0.73377	0	0
20.22	0.0528877	1.5448	1.30404	0.747893	-0.702752	0.977125	-0.0936772	-0.0354553	-0.282083	0.161964	0.188842	0	0	0.174285	-0.043198	-0.219228	0.2591	0.0787791	0	0	-0.173499	0.131819	0.06691	0.0758731	-0.331394	0.299377	2.05292	1.5708	0	0	0.0295857	-0.251076	-0.287885	1.86976	0.73366	0	0
20.23	0.25495	1.52275	1.10576	0.748681	-0.702519	0.974456	-0.0715913	-0.0184514	-0.287213	0.170114	0.194185	0	0	0.185206	-0.0527205	-0.199806	0.229818	0.0727897	0	0	-0.153216	0.1466	0.0653268	0.0750501	-0.331238	0.302597	2.05436	1.5708	0	0	0.0294556	-0.252096	-0.290317	1.87054	0.733928	0	0
